<svg viewBox="0 0 280 43" xmlns="http://www.w3.org/2000/svg" data-logo="logo">
            <g transform="translate(0, 1.5) rotate(0)" id="logogram" style="opacity: 1;"><path fill="#646CFF" d="M0.688572 17.7809C1.92762 12.8009 4.79722 8.37838 8.84043 5.2179C12.8837 2.05736 17.8681 0.340393 23 0.340393C28.1319 0.340393 33.1163 2.05736 37.1596 5.2179C41.2028 8.37838 44.0723 12.8009 45.3114 17.7809H43.2961C39.8964 17.7309 36.5664 18.7469 33.7736 20.6864C33.6124 20.8031 33.4441 20.9097 33.2698 21.0055H33.0347C32.8604 20.9097 32.6921 20.8031 32.5309 20.6864C29.7134 18.7918 26.3952 17.7799 23 17.7799C19.6048 17.7799 16.2866 18.7918 13.4692 20.6864C13.3079 20.8031 13.1396 20.9097 12.9653 21.0055H12.7302C12.5559 20.9097 12.3876 20.8031 12.2264 20.6864C9.43361 18.7469 6.10361 17.7309 2.70391 17.7809H0.688572ZM39.6685 28.311C40.703 27.5054 41.9853 27.0839 43.2961 27.1186H46V21.7276H43.2961C40.9872 21.6997 38.7312 22.4184 36.8638 23.7765C35.813 24.5513 34.5418 24.9693 33.2362 24.9693C31.9306 24.9693 30.6594 24.5513 29.6086 23.7765C27.6939 22.4437 25.4169 21.7291 23.084 21.7291C20.7511 21.7291 18.4741 22.4437 16.5593 23.7765C15.5085 24.5513 14.2373 24.9693 12.9317 24.9693C11.6261 24.9693 10.355 24.5513 9.30413 23.7765C7.41374 22.4009 5.12533 21.6814 2.78788 21.7276H0V27.1186H2.70391C4.01473 27.0839 5.29697 27.5054 6.33151 28.311C8.24272 29.6449 10.5172 30.36 12.8478 30.36C15.1783 30.36 17.4528 29.6449 19.364 28.311C20.3999 27.5079 21.6811 27.0867 22.9916 27.1186C24.3029 27.081 25.586 27.5029 26.6192 28.311C28.5339 29.644 30.8109 30.3585 33.1439 30.3585C35.4768 30.3585 37.7538 29.644 39.6685 28.311ZM39.6685 37.9511C40.703 37.1454 41.9853 36.7239 43.2961 36.7587H46V31.3676H43.2961C40.9872 31.3398 38.7312 32.0584 36.8638 33.4166C35.813 34.1913 34.5418 34.6093 33.2362 34.6093C31.9306 34.6093 30.6594 34.1913 29.6086 33.4166C27.6939 32.0838 25.4169 31.3693 23.084 31.3693C20.7511 31.3693 18.4741 32.0838 16.5593 33.4166C15.5085 34.1913 14.2373 34.6093 12.9317 34.6093C11.6261 34.6093 10.355 34.1913 9.30413 33.4166C7.41374 32.0411 5.12533 31.3215 2.78788 31.3676H0V36.7587H2.70391C4.01473 36.7239 5.29697 37.1454 6.33151 37.9511C8.24272 39.2849 10.5172 40 12.8478 40C15.1783 40 17.4528 39.2849 19.364 37.9511C20.3999 37.1479 21.6811 36.7267 22.9916 36.7587C24.3029 36.721 25.586 37.1429 26.6192 37.9511C28.5339 39.284 30.8109 39.9985 33.1439 39.9985C35.4768 39.9985 37.7538 39.284 39.6685 37.9511Z"></path></g>
            <g transform="translate(52, 1)" id="logotype" style="opacity: 1;"><path d="M15.69 34.34L15.69 34.34Q11.73 34.34 9.44 32.27Q7.16 30.19 7.16 26.34L7.16 26.34L7.16 24.86L12.37 24.86L12.37 26.43Q12.37 28.26 13.27 29.20Q14.17 30.14 15.69 30.14L15.69 30.14Q17.21 30.14 18.10 29.20Q18.99 28.26 18.99 26.41L18.99 26.41L18.99 8.54L24.15 8.54L24.15 26.33Q24.15 30.19 21.89 32.27Q19.64 34.34 15.69 34.34ZM34.91 34.38L34.91 34.38Q32.04 34.38 29.94 33.14Q27.84 31.90 26.70 29.68Q25.57 27.47 25.57 24.53L25.57 24.53Q25.57 21.56 26.70 19.35Q27.84 17.13 29.94 15.89Q32.04 14.65 34.91 14.65L34.91 14.65Q37.80 14.65 39.90 15.89Q41.99 17.13 43.13 19.35Q44.26 21.56 44.26 24.53L44.26 24.53Q44.26 27.47 43.13 29.68Q41.99 31.90 39.90 33.14Q37.80 34.38 34.91 34.38ZM34.91 30.34L34.91 30.34Q36.28 30.34 37.20 29.58Q38.13 28.82 38.59 27.50Q39.05 26.17 39.05 24.52L39.05 24.52Q39.05 22.82 38.59 21.51Q38.13 20.19 37.20 19.44Q36.28 18.69 34.91 18.69L34.91 18.69Q33.55 18.69 32.63 19.44Q31.72 20.19 31.26 21.51Q30.80 22.82 30.80 24.52L30.80 24.52Q30.80 26.17 31.26 27.50Q31.72 28.82 32.63 29.58Q33.55 30.34 34.91 30.34ZM52.14 34.24L52.14 34.24Q50.16 34.24 48.67 33.38Q47.18 32.51 46.37 30.90Q45.56 29.28 45.56 27.04L45.56 27.04L45.56 14.89L50.69 14.89L50.69 26.16Q50.69 27.93 51.61 28.94Q52.53 29.95 54.14 29.95L54.14 29.95Q55.23 29.95 56.07 29.48Q56.91 29.01 57.38 28.11Q57.85 27.22 57.85 25.95L57.85 25.95L57.85 14.89L62.97 14.89L62.97 34L58.14 34L58.07 29.23L58.36 29.23Q57.61 31.64 56.06 32.94Q54.51 34.24 52.14 34.24ZM70.20 34L65.07 34L65.07 14.89L70.03 14.89L70.03 18.23L70.23 18.23Q70.76 16.45 72.00 15.54Q73.24 14.64 74.85 14.64L74.85 14.64Q75.24 14.64 75.69 14.68Q76.15 14.72 76.51 14.81L76.51 14.81L76.51 19.39Q76.16 19.27 75.52 19.20Q74.87 19.13 74.28 19.13L74.28 19.13Q73.12 19.13 72.18 19.64Q71.24 20.14 70.72 21.04Q70.20 21.93 70.20 23.13L70.20 23.13L70.20 34ZM82.18 22.94L82.18 22.94L82.18 34L77.05 34L77.05 14.89L81.89 14.89L81.97 19.66L81.67 19.66Q82.42 17.27 83.95 15.96Q85.48 14.65 87.90 14.65L87.90 14.65Q89.89 14.65 91.36 15.52Q92.83 16.38 93.65 18.00Q94.47 19.61 94.47 21.85L94.47 21.85L94.47 34L89.34 34L89.34 22.74Q89.34 20.96 88.42 19.95Q87.51 18.94 85.89 18.94L85.89 18.94Q84.81 18.94 83.96 19.41Q83.12 19.88 82.65 20.77Q82.18 21.66 82.18 22.94ZM105.20 34.38L105.20 34.38Q102.27 34.38 100.15 33.18Q98.04 31.98 96.90 29.78Q95.76 27.57 95.76 24.55L95.76 24.55Q95.76 21.59 96.89 19.37Q98.02 17.15 100.09 15.90Q102.15 14.65 104.94 14.65L104.94 14.65Q106.82 14.65 108.44 15.25Q110.07 15.85 111.30 17.06Q112.53 18.26 113.22 20.07Q113.91 21.88 113.91 24.34L113.91 24.34L113.91 25.78L97.86 25.78L97.86 22.57L111.40 22.57L109.01 23.42Q109.01 21.93 108.55 20.83Q108.10 19.73 107.20 19.12Q106.31 18.52 104.97 18.52L104.97 18.52Q103.66 18.52 102.73 19.13Q101.80 19.75 101.32 20.80Q100.84 21.85 100.84 23.20L100.84 23.20L100.84 25.47Q100.84 27.13 101.39 28.26Q101.95 29.39 102.95 29.95Q103.95 30.51 105.28 30.51L105.28 30.51Q106.19 30.51 106.92 30.26Q107.66 30.00 108.18 29.50Q108.70 28.99 108.97 28.26L108.97 28.26L113.62 29.13Q113.16 30.70 112.02 31.89Q110.87 33.08 109.15 33.73Q107.44 34.38 105.20 34.38ZM115.00 40.77L115.00 40.77L116.18 36.91L116.82 37.06Q117.84 37.33 118.64 37.21Q119.45 37.09 119.93 36.56Q120.42 36.03 120.52 35.08L120.52 35.08L120.66 34.05L113.48 14.89L118.93 14.89L122.15 24.81Q122.73 26.69 123.10 28.57Q123.46 30.45 123.94 32.50L123.94 32.50L122.75 32.50Q123.21 30.45 123.67 28.56Q124.13 26.67 124.75 24.81L124.75 24.81L128.09 14.89L133.48 14.89L125.36 36.26Q124.78 37.79 123.87 38.92Q122.97 40.05 121.62 40.67Q120.27 41.28 118.35 41.28L118.35 41.28Q117.33 41.28 116.44 41.14Q115.55 40.99 115.00 40.77ZM151.35 34.34L151.35 34.34Q147.78 34.34 145.09 32.76Q142.39 31.18 140.88 28.25Q139.37 25.32 139.37 21.30L139.37 21.30Q139.37 17.17 140.94 14.24Q142.51 11.30 145.20 9.75Q147.88 8.19 151.23 8.19L151.23 8.19Q153.38 8.19 155.24 8.82Q157.09 9.44 158.54 10.59Q159.98 11.73 160.89 13.30Q161.81 14.86 162.08 16.74L162.08 16.74L156.78 16.74Q156.51 15.83 156.02 15.11Q155.54 14.38 154.84 13.87Q154.15 13.36 153.26 13.09Q152.38 12.83 151.32 12.83L151.32 12.83Q149.35 12.83 147.85 13.81Q146.34 14.79 145.51 16.67Q144.67 18.55 144.67 21.25L144.67 21.25Q144.67 23.95 145.50 25.84Q146.33 27.73 147.83 28.72Q149.33 29.71 151.38 29.71L151.38 29.71Q153.23 29.71 154.55 29.04Q155.86 28.38 156.57 27.15Q157.28 25.92 157.28 24.24L157.28 24.24L158.37 24.40L151.74 24.40L151.74 20.43L162.34 20.43L162.34 23.61Q162.34 26.96 160.92 29.36Q159.50 31.76 157.02 33.05Q154.55 34.34 151.35 34.34ZM172.57 34.38L172.57 34.38Q169.65 34.38 167.53 33.18Q165.41 31.98 164.28 29.78Q163.14 27.57 163.14 24.55L163.14 24.55Q163.14 21.59 164.27 19.37Q165.40 17.15 167.46 15.90Q169.53 14.65 172.32 14.65L172.32 14.65Q174.20 14.65 175.82 15.25Q177.44 15.85 178.67 17.06Q179.90 18.26 180.60 20.07Q181.29 21.88 181.29 24.34L181.29 24.34L181.29 25.78L165.24 25.78L165.24 22.57L178.78 22.57L176.38 23.42Q176.38 21.93 175.93 20.83Q175.48 19.73 174.58 19.12Q173.68 18.52 172.35 18.52L172.35 18.52Q171.04 18.52 170.10 19.13Q169.17 19.75 168.69 20.80Q168.22 21.85 168.22 23.20L168.22 23.20L168.22 25.47Q168.22 27.13 168.77 28.26Q169.33 29.39 170.33 29.95Q171.33 30.51 172.66 30.51L172.66 30.51Q173.56 30.51 174.30 30.26Q175.03 30.00 175.56 29.50Q176.08 28.99 176.35 28.26L176.35 28.26L181.00 29.13Q180.54 30.70 179.39 31.89Q178.25 33.08 176.53 33.73Q174.81 34.38 172.57 34.38ZM187.64 22.94L187.64 22.94L187.64 34L182.52 34L182.52 14.89L187.35 14.89L187.44 19.66L187.13 19.66Q187.88 17.27 189.41 15.96Q190.94 14.65 193.37 14.65L193.37 14.65Q195.35 14.65 196.82 15.52Q198.29 16.38 199.11 18.00Q199.93 19.61 199.93 21.85L199.93 21.85L199.93 34L194.81 34L194.81 22.74Q194.81 20.96 193.89 19.95Q192.98 18.94 191.35 18.94L191.35 18.94Q190.28 18.94 189.43 19.41Q188.58 19.88 188.11 20.77Q187.64 21.66 187.64 22.94ZM207.16 34L202.03 34L202.03 14.89L207.16 14.89L207.16 34ZM204.60 12.40L204.60 12.40Q203.43 12.40 202.61 11.63Q201.79 10.86 201.79 9.77L201.79 9.77Q201.79 8.67 202.61 7.90Q203.43 7.13 204.60 7.13L204.60 7.13Q205.76 7.13 206.59 7.90Q207.42 8.66 207.42 9.77L207.42 9.77Q207.42 10.86 206.59 11.63Q205.76 12.40 204.60 12.40ZM217.87 34.38L217.87 34.38Q214.95 34.38 212.83 33.18Q210.71 31.98 209.58 29.78Q208.44 27.57 208.44 24.55L208.44 24.55Q208.44 21.59 209.57 19.37Q210.69 17.15 212.76 15.90Q214.83 14.65 217.62 14.65L217.62 14.65Q219.50 14.65 221.12 15.25Q222.74 15.85 223.97 17.06Q225.20 18.26 225.90 20.07Q226.59 21.88 226.59 24.34L226.59 24.34L226.59 25.78L210.54 25.78L210.54 22.57L224.08 22.57L221.68 23.42Q221.68 21.93 221.23 20.83Q220.78 19.73 219.88 19.12Q218.98 18.52 217.65 18.52L217.65 18.52Q216.33 18.52 215.40 19.13Q214.47 19.75 213.99 20.80Q213.51 21.85 213.51 23.20L213.51 23.20L213.51 25.47Q213.51 27.13 214.07 28.26Q214.63 29.39 215.63 29.95Q216.62 30.51 217.96 30.51L217.96 30.51Q218.86 30.51 219.60 30.26Q220.33 30.00 220.85 29.50Q221.38 28.99 221.65 28.26L221.65 28.26L226.30 29.13Q225.84 30.70 224.69 31.89Q223.55 33.08 221.83 33.73Q220.11 34.38 217.87 34.38Z" fill="#f4f4f4"></path></g>
            
          </svg>